<mxfile host="app.diagrams.net" modified="2023-10-29T13:32:39.770Z" agent="Mozilla/5.0 (Windows NT 10.0; Win64; x64) AppleWebKit/537.36 (KHTML, like Gecko) Chrome/118.0.0.0 Safari/537.36 Edg/118.0.2088.69" etag="a03ztYSWRYkQn9-NyJvO" version="21.7.5" type="device">
  <diagram name="Page-1" id="YhTfcabP_Ecn7UhMgEFG">
    <mxGraphModel dx="1011" dy="533" grid="1" gridSize="10" guides="1" tooltips="1" connect="1" arrows="1" fold="1" page="1" pageScale="1" pageWidth="2500" pageHeight="2500" math="0" shadow="0">
      <root>
        <mxCell id="0" />
        <mxCell id="1" parent="0" />
        <mxCell id="dX5w9DFMHIMdZIy7sCKm-15" style="edgeStyle=orthogonalEdgeStyle;rounded=0;orthogonalLoop=1;jettySize=auto;html=1;exitX=1;exitY=0.5;exitDx=0;exitDy=0;entryX=0;entryY=0.3;entryDx=0;entryDy=0;startArrow=classic;startFill=1;" edge="1" parent="1" source="dX5w9DFMHIMdZIy7sCKm-1" target="dX5w9DFMHIMdZIy7sCKm-13">
          <mxGeometry relative="1" as="geometry" />
        </mxCell>
        <mxCell id="dX5w9DFMHIMdZIy7sCKm-1" value="Web App" style="rounded=0;whiteSpace=wrap;html=1;fillColor=#dae8fc;strokeColor=#6c8ebf;" vertex="1" parent="1">
          <mxGeometry x="400" y="160" width="160" height="80" as="geometry" />
        </mxCell>
        <mxCell id="dX5w9DFMHIMdZIy7sCKm-16" style="edgeStyle=orthogonalEdgeStyle;rounded=0;orthogonalLoop=1;jettySize=auto;html=1;exitX=1;exitY=0.5;exitDx=0;exitDy=0;entryX=0;entryY=0.7;entryDx=0;entryDy=0;" edge="1" parent="1" source="dX5w9DFMHIMdZIy7sCKm-2" target="dX5w9DFMHIMdZIy7sCKm-13">
          <mxGeometry relative="1" as="geometry">
            <Array as="points">
              <mxPoint x="570" y="320" />
              <mxPoint x="570" y="252" />
            </Array>
          </mxGeometry>
        </mxCell>
        <mxCell id="dX5w9DFMHIMdZIy7sCKm-2" value="Hardware" style="rounded=0;whiteSpace=wrap;html=1;fillColor=#d5e8d4;strokeColor=#82b366;" vertex="1" parent="1">
          <mxGeometry x="400" y="280" width="160" height="80" as="geometry" />
        </mxCell>
        <mxCell id="dX5w9DFMHIMdZIy7sCKm-6" style="edgeStyle=orthogonalEdgeStyle;rounded=0;orthogonalLoop=1;jettySize=auto;html=1;entryX=0.5;entryY=0;entryDx=0;entryDy=0;exitX=1;exitY=0.5;exitDx=0;exitDy=0;" edge="1" parent="1" source="dX5w9DFMHIMdZIy7sCKm-3" target="dX5w9DFMHIMdZIy7sCKm-13">
          <mxGeometry relative="1" as="geometry">
            <Array as="points">
              <mxPoint x="900" y="240" />
              <mxPoint x="900" y="80" />
              <mxPoint x="620" y="80" />
            </Array>
          </mxGeometry>
        </mxCell>
        <mxCell id="dX5w9DFMHIMdZIy7sCKm-7" style="edgeStyle=orthogonalEdgeStyle;rounded=0;orthogonalLoop=1;jettySize=auto;html=1;entryX=0.5;entryY=1;entryDx=0;entryDy=0;dashed=1;dashPattern=8 8;" edge="1" parent="1" source="dX5w9DFMHIMdZIy7sCKm-3" target="dX5w9DFMHIMdZIy7sCKm-2">
          <mxGeometry relative="1" as="geometry">
            <Array as="points">
              <mxPoint x="720" y="400" />
              <mxPoint x="480" y="400" />
            </Array>
          </mxGeometry>
        </mxCell>
        <mxCell id="dX5w9DFMHIMdZIy7sCKm-3" value="Match Maker (Recommandation System)" style="rounded=0;whiteSpace=wrap;html=1;fillColor=#f8cecc;strokeColor=#b85450;" vertex="1" parent="1">
          <mxGeometry x="680" y="210" width="160" height="60" as="geometry" />
        </mxCell>
        <mxCell id="dX5w9DFMHIMdZIy7sCKm-10" style="edgeStyle=orthogonalEdgeStyle;rounded=0;orthogonalLoop=1;jettySize=auto;html=1;entryX=0;entryY=0.5;entryDx=0;entryDy=0;" edge="1" parent="1" source="dX5w9DFMHIMdZIy7sCKm-9" target="dX5w9DFMHIMdZIy7sCKm-1">
          <mxGeometry relative="1" as="geometry" />
        </mxCell>
        <mxCell id="dX5w9DFMHIMdZIy7sCKm-9" value="" style="sketch=0;pointerEvents=1;shadow=0;dashed=0;html=1;strokeColor=none;fillColor=#505050;labelPosition=center;verticalLabelPosition=bottom;verticalAlign=top;outlineConnect=0;align=center;shape=mxgraph.office.users.user;" vertex="1" parent="1">
          <mxGeometry x="230" y="220" width="70" height="70" as="geometry" />
        </mxCell>
        <mxCell id="dX5w9DFMHIMdZIy7sCKm-11" style="edgeStyle=orthogonalEdgeStyle;rounded=0;orthogonalLoop=1;jettySize=auto;html=1;entryX=0;entryY=0.5;entryDx=0;entryDy=0;" edge="1" parent="1" source="dX5w9DFMHIMdZIy7sCKm-9" target="dX5w9DFMHIMdZIy7sCKm-2">
          <mxGeometry relative="1" as="geometry">
            <mxPoint x="250" y="390" as="sourcePoint" />
            <mxPoint x="340" y="330" as="targetPoint" />
          </mxGeometry>
        </mxCell>
        <mxCell id="dX5w9DFMHIMdZIy7sCKm-12" value="" style="sketch=0;pointerEvents=1;shadow=0;dashed=0;html=1;strokeColor=none;fillColor=#505050;labelPosition=center;verticalLabelPosition=bottom;verticalAlign=top;outlineConnect=0;align=center;shape=mxgraph.office.users.users;" vertex="1" parent="1">
          <mxGeometry x="720" y="90" width="80" height="70" as="geometry" />
        </mxCell>
        <mxCell id="dX5w9DFMHIMdZIy7sCKm-17" style="edgeStyle=orthogonalEdgeStyle;rounded=0;orthogonalLoop=1;jettySize=auto;html=1;exitX=1;exitY=0.5;exitDx=0;exitDy=0;entryX=0;entryY=0.5;entryDx=0;entryDy=0;" edge="1" parent="1" source="dX5w9DFMHIMdZIy7sCKm-13" target="dX5w9DFMHIMdZIy7sCKm-3">
          <mxGeometry relative="1" as="geometry" />
        </mxCell>
        <mxCell id="dX5w9DFMHIMdZIy7sCKm-13" value="Database" style="shape=datastore;whiteSpace=wrap;html=1;fillColor=#fff2cc;strokeColor=#d6b656;" vertex="1" parent="1">
          <mxGeometry x="590" y="210" width="60" height="60" as="geometry" />
        </mxCell>
      </root>
    </mxGraphModel>
  </diagram>
</mxfile>
